<svg
  xmlns="http://www.w3.org/2000/svg"
  viewBox="16.1 -324.3 326.6 326.6"
  width="100%"
  height="100%"
>
  <path
    d="M 179.4 -52.9 C 115.46 -52.9 71.3 -97.52 71.3 -161.46 C 71.3 -224.48 115.46 -269.1 179.4 -269.1 C 242.88 -269.1 287.5 -224.48 287.5 -161.46 C 287.5 -137.08 281.06 -115 269.1 -97.98 L 242.42 -138 L 176.18 -138 L 226.78 -62.1 C 212.52 -56.12 196.88 -52.9 179.4 -52.9 Z
       M 16.1 -161.46 C 16.1 -70.84 88.78 2.3 179.4 2.3 C 207.46 2.3 233.68 -4.6 256.68 -17.02 L 268.18 0 L 334.42 0 L 300.38 -51.06 C 326.6 -80.5 342.7 -119.14 342.7 -161.46 C 342.7 -251.16 269.56 -324.3 179.4 -324.3 C 88.78 -324.3 16.1 -251.16 16.1 -161.46 Z"
    fill="rgb(245,147,227)"
  />
</svg>
